<svg width="139" height="139" viewBox="0 0 139 139" fill="none" xmlns="http://www.w3.org/2000/svg">
<rect width="139" height="139" rx="64" fill="white"/>
<rect x="13.9498" y="13.9498" width="110.934" height="110.934" rx="32" fill="black"/>
<rect width="139" height="139" rx="64" fill="white"/>
<rect x="13.9498" y="13.9498" width="110.934" height="110.934" rx="32" fill="black"/>
<path d="M30.9719 35.705L43.5562 13.9084L21.4793 17L30.9719 35.705Z" fill="white"/>
<path d="M105.584 35.705L93 13.9084H104.5L115.077 17L105.584 35.705Z" fill="white"/>
<path d="M56.0484 35.705L68.6327 13.9084H43.4641L56.0484 35.705Z" fill="white"/>
<path d="M80.9588 35.705L93.5431 13.9084H68.3745L80.9588 35.705Z" fill="white"/>
<path d="M30.9719 103.461L43.5562 125.258L22.1454 121.5L30.9719 103.461Z" fill="white"/>
<path d="M105.584 103.461L93 125.258L103.5 124L114.411 121.5L105.584 103.461Z" fill="white"/>
<path d="M56.0484 103.461L68.6327 125.258H43.4641L56.0484 103.461Z" fill="white"/>
<path d="M80.9588 103.461L93.5431 125.258H68.3745L80.9588 103.461Z" fill="white"/>
</svg>
